HIERARCHY
ROOT Pelvis
{
	OFFSET -0.217368 -24.078917 2.858379
	CHANNELS 6 Xposition Yposition Zposition Zrotation Yrotation Xrotation 
	JOINT Left_hip
	{
		OFFSET 5.858135 -8.228005 -1.766408
		CHANNELS 3 Zrotation Yrotation Xrotation
		JOINT Left_knee
		{
			OFFSET 4.345143 -38.646942 0.803700
			CHANNELS 3 Zrotation Yrotation Xrotation
			JOINT Left_ankle
			{
				OFFSET -1.479033 -42.687447 -3.742800
				CHANNELS 3 Zrotation Yrotation Xrotation
				JOINT Left_foot
				{
					OFFSET 4.105436 -6.028605 12.204244
					CHANNELS 3 Zrotation Yrotation Xrotation
					End Site
					{
						OFFSET 0.000000 0.000000 0.000000
					}
				}
			}
		}
	}
	JOINT Right_hip
	{
		OFFSET -6.030973 -9.051328 -1.354253
		CHANNELS 3 Zrotation Yrotation Xrotation
		JOINT Right_knee
		{
			OFFSET -4.325663 -38.368790 -0.484304
			CHANNELS 3 Zrotation Yrotation Xrotation
			JOINT Right_ankle
			{
				OFFSET 1.905555 -42.004566 -3.456167
				CHANNELS 3 Zrotation Yrotation Xrotation
				JOINT Right_foot
				{
					OFFSET -3.483987 -6.210554 13.032330
					CHANNELS 3 Zrotation Yrotation Xrotation
					End Site
					{
						OFFSET 0.000000 0.000000 0.000000
					}
				}
			}
		}
	}
	JOINT Spine1
	{
		OFFSET 0.443945 12.440353 -3.838522
		CHANNELS 3 Zrotation Yrotation Xrotation
		JOINT Spine2
		{
			OFFSET 0.448844 13.795640 2.682033
			CHANNELS 3 Zrotation Yrotation Xrotation
			JOINT Spine3
			{
				OFFSET -0.226460 5.603239 0.285504
				CHANNELS 3 Zrotation Yrotation Xrotation
				JOINT Neck
				{
					OFFSET -1.339018 21.163553 -3.346758
					CHANNELS 3 Zrotation Yrotation Xrotation
					JOINT Head
					{
						OFFSET 1.011321 8.893734 5.040987
						CHANNELS 3 Zrotation Yrotation Xrotation
						End Site
						{
							OFFSET 0.000000 0.000000 0.000000
						}
					}
				}
				JOINT Left_collar
				{
					OFFSET 7.170247 11.399971 -1.889817
					CHANNELS 3 Zrotation Yrotation Xrotation
					JOINT Left_shoulder
					{
						OFFSET 12.292140 4.520507 -1.904600
						CHANNELS 3 Zrotation Yrotation Xrotation
						JOINT Left_elbow
						{
							OFFSET 25.533188 -1.564902 -2.294648
							CHANNELS 3 Zrotation Yrotation Xrotation
							JOINT Left_wrist
							{
								OFFSET 26.570929 1.269810 -0.737473
								CHANNELS 3 Zrotation Yrotation Xrotation
								JOINT Left_palm
								{
									OFFSET 8.669054 -1.063602 -1.559429
									CHANNELS 3 Zrotation Yrotation Xrotation
									End Site
									{
										OFFSET 0.000000 0.000000 0.000000
									}
								}
							}
						}
					}
				}
				JOINT Right_collar
				{
					OFFSET -8.295364 11.247234 -2.370738
					CHANNELS 3 Zrotation Yrotation Xrotation
					JOINT Right_shoulder
					{
						OFFSET -11.322830 4.685326 -0.847207
						CHANNELS 3 Zrotation Yrotation Xrotation
						JOINT Right_elbow
						{
							OFFSET -26.012751 -1.436928 -3.126872
							CHANNELS 3 Zrotation Yrotation Xrotation
							JOINT Right_wrist
							{
								OFFSET -26.910841 0.679372 -0.602677
								CHANNELS 3 Zrotation Yrotation Xrotation
								JOINT Right_palm
								{
									OFFSET -8.875370 -0.865157 -1.010708
									CHANNELS 3 Zrotation Yrotation Xrotation
									End Site
									{
										OFFSET 0.000000 0.000000 0.000000
									}
								}
							}
						}
					}
				}
			}
		}
	}
}
MOTION
Frames: 8
Frame Time: 0.016667
-0.217368 68.089508 2.858379 -3.609409 -2.834902 -2.587300 12.437559 -0.062812 -4.914202 -6.447637 1.131251 18.125897 6.319076 12.515059 -3.435983 0.000000 0.000000 0.000000 -14.620255 0.088373 -8.935037 4.434342 -0.462847 14.506351 -2.113670 -9.125177 12.455860 0.000000 0.000000 0.000000 3.264497 -0.690774 9.561157 -0.271174 0.689661 -23.870773 -2.365186 3.935702 23.720989 6.333953 -3.119926 -12.052779 0.000000 0.000000 0.000000 -13.711299 7.460956 -4.913664 -30.055855 -11.146634 -0.805923 7.806850 -39.559381 -1.284910 0.000000 0.000000 0.000000 0.000000 0.000000 0.000000 13.442703 -11.384202 -6.702340 30.867647 7.054510 -1.078771 -10.496301 32.552032 -1.826516 0.000000 0.000000 0.000000 0.000000 0.000000 0.000000 
0.267928 68.167847 2.710620 -3.971236 -1.956307 -2.716092 11.549948 -0.075037 -6.498556 -6.745029 1.278159 20.534100 6.998164 13.907650 -3.966346 0.000000 0.000000 0.000000 -15.513200 0.029542 -9.205185 5.313777 -0.670808 14.506941 -1.092893 -7.841606 14.769593 0.000000 0.000000 0.000000 2.753906 -0.717831 10.695170 0.720767 0.449080 -23.913962 -2.224779 3.380316 24.078854 8.569530 -4.696291 -11.204799 0.000000 0.000000 0.000000 -15.002194 7.729328 -5.284186 -32.629403 -11.221093 -0.809889 8.383820 -42.015869 -1.594224 0.000000 0.000000 0.000000 0.000000 0.000000 0.000000 15.247732 -10.612227 -6.731823 30.378027 6.818614 -1.118387 -13.068161 31.501658 -2.432694 0.000000 0.000000 0.000000 0.000000 0.000000 0.000000 
0.679637 68.358337 2.486809 -4.282537 -1.915702 -2.337863 10.438093 -0.124965 -7.522403 -6.666015 1.279812 21.476697 7.851192 15.866808 -3.046161 0.000000 0.000000 0.000000 -14.894015 0.040959 -9.999930 3.695251 -0.282884 15.212369 -0.950338 -7.506156 14.465834 0.000000 0.000000 0.000000 3.274747 -0.720792 9.976768 -0.139493 0.623544 -22.404730 -1.494673 3.859335 24.444933 9.447118 -5.135063 -11.917072 0.000000 0.000000 0.000000 -15.566521 5.497166 -4.302677 -33.055272 -11.205407 -0.817165 14.232402 -44.175504 -4.045153 0.000000 0.000000 0.000000 0.000000 0.000000 0.000000 17.063830 -10.129181 -6.886855 30.767694 7.158762 -1.053391 -16.343206 33.563848 -3.552391 0.000000 0.000000 0.000000 0.000000 0.000000 0.000000 
0.981204 68.025002 2.328573 -4.258783 -2.044690 -2.821534 9.978541 -0.151096 -7.866537 -7.071154 1.429454 22.316882 8.006188 15.994163 -4.990534 0.000000 0.000000 0.000000 -15.755520 -0.017287 -10.072745 3.164408 -0.164053 14.382005 -0.026924 -6.771919 17.700036 0.000000 0.000000 0.000000 2.773592 -0.788234 11.736387 -0.600811 0.739550 -22.259931 -1.410653 3.860302 23.818292 10.253730 -5.927620 -10.530967 0.000000 0.000000 0.000000 -16.461418 4.927740 -4.169839 -33.434195 -11.097398 -0.847405 17.735716 -47.383734 -5.916970 0.000000 0.000000 0.000000 0.000000 0.000000 0.000000 19.184052 -10.638999 -7.621422 30.986727 7.687339 -0.940526 -17.824907 36.930663 -4.446405 0.000000 0.000000 0.000000 0.000000 0.000000 0.000000 
1.166096 68.015198 2.274143 -4.538369 -1.314878 -2.590059 9.081397 -0.200969 -7.774168 -6.795202 1.313897 21.282533 7.664683 15.095919 -6.070939 0.000000 0.000000 0.000000 -14.828843 0.022471 -10.760342 1.904209 0.147105 14.989814 -0.221725 -6.821808 16.671323 0.000000 0.000000 0.000000 2.726804 -0.775447 11.620472 -0.310268 0.651553 -21.670091 -1.471696 3.980754 23.842628 10.294785 -5.913222 -10.739755 0.000000 0.000000 0.000000 -17.444271 2.943697 -3.319402 -32.932111 -10.827468 -0.909389 22.280795 -50.290211 -8.484257 0.000000 0.000000 0.000000 0.000000 0.000000 0.000000 21.730582 -9.435944 -7.533590 31.199683 6.290667 -1.258108 -21.429513 43.805403 -6.847098 0.000000 0.000000 0.000000 0.000000 0.000000 0.000000 
1.253516 68.041740 2.291606 -4.608360 -1.308984 -2.096747 8.408518 -0.235200 -7.579931 -6.716353 1.274821 20.725296 7.712742 15.154574 -6.464813 0.000000 0.000000 0.000000 -14.832216 -0.012102 -11.908709 1.719649 0.200936 15.354319 -0.276817 -7.227620 17.825332 0.000000 0.000000 0.000000 2.158563 -0.665262 10.832624 0.378279 0.462302 -21.413000 -1.116461 3.616532 24.331126 10.594691 -6.044138 -11.070059 0.000000 0.000000 0.000000 -18.113557 2.443817 -3.156558 -32.991794 -10.262161 -1.049608 24.386775 -53.299573 -10.149068 0.000000 0.000000 0.000000 0.000000 0.000000 0.000000 22.227817 -8.267852 -6.983207 32.384063 5.755911 -1.420315 -25.018352 50.563634 -9.807764 0.000000 0.000000 0.000000 0.000000 0.000000 0.000000 
1.232449 68.105103 2.341667 -3.936615 -2.246048 -1.903830 7.392880 -0.256164 -6.298594 -6.944945 1.275285 18.393226 7.639757 14.974831 -6.546806 0.000000 0.000000 0.000000 -15.622204 -0.107547 -12.757894 2.114151 0.137435 16.846876 -0.395498 -7.341286 17.496082 0.000000 0.000000 0.000000 1.614149 -0.584545 10.390906 0.587621 0.389871 -20.864278 -1.161423 3.720093 24.019378 8.338885 -4.654674 -10.581363 0.000000 0.000000 0.000000 -17.041705 2.399895 -2.986406 -33.973338 -9.540272 -1.250734 26.446019 -55.407162 -11.724538 0.000000 0.000000 0.000000 0.000000 0.000000 0.000000 21.497209 -6.997903 -6.125258 34.444649 4.912719 -1.708470 -25.872989 57.155926 -11.869633 0.000000 0.000000 0.000000 0.000000 0.000000 0.000000 
1.105709 68.201828 2.399996 -3.387968 -2.340039 -1.722358 6.851812 -0.261999 -5.741524 -7.050717 1.273611 17.356184 7.769090 15.460683 -5.047819 0.000000 0.000000 0.000000 -16.077611 -0.215323 -14.402474 3.131202 -0.092830 19.387125 -1.161105 -8.407101 16.546587 0.000000 0.000000 0.000000 1.450800 -0.548374 10.020923 0.254467 0.461454 -20.164920 -1.263889 3.262067 23.472172 8.251576 -4.592712 -10.607332 0.000000 0.000000 0.000000 -15.510288 1.944719 -2.554979 -34.151963 -9.549189 -1.252705 30.533270 -55.848743 -14.059050 0.000000 0.000000 0.000000 0.000000 0.000000 0.000000 21.106043 -6.556964 -5.806687 36.453620 4.614033 -1.878594 -26.497811 64.137274 -14.139752 0.000000 0.000000 0.000000 0.000000 0.000000 0.000000 
